<?xml version="1.0" encoding="UTF-8"?><svg xmlns="http://www.w3.org/2000/svg" viewBox="0 0 313.97 132.88"><defs><style>.cls-1{font-family:Montserrat-SemiBold, Montserrat;font-size:13px;font-weight:600;letter-spacing:-.03em;}.cls-1,.cls-2{fill:#fff;}.cls-3{fill:#004f9d;}.cls-4{fill:#ffed00;}.cls-5{fill:#164194;}.cls-6{fill:#a3add8;}.cls-7{fill:none;stroke:#164194;stroke-linecap:round;stroke-miterlimit:10;stroke-width:.68px;}.cls-8{fill:#9ac43f;fill-rule:evenodd;}</style></defs><g id="Ebene_6"><rect class="cls-2" x="0" width="313.97" height="132.88"/></g><g id="P2_Greener"><path class="cls-8" d="m239.65,111.42c-2.49.08-12.49.21-15.38.29-5.42.13-23.42.91-26.14,1.93-.33.12-.54-.03-.66-.39-.06-.03-.12-.05-.18-.05-.18-.02-.41.18-.53.3-.12.11.21.22.21.22l.16.11s.17.27.17.4c0,.13-.14,0-.23-.09-.08-.09-.52-.44-.67-.55-.14-.11-.31-.02-.39-.06-.08-.04-.37-.15-.49-.17-.12-.02-.57.14-.67.21-.1.07-.16.38-.26.45-.1.07-.14.09-.2.25-.06.16-.52.63-.75.79-.22.16-.66.03-.66.03,0,0,.16-.43.22-.52.06-.09.22-.34.22-.34,0,0-.13-.18-.15-.24-.02-.07-.45.09-.45.09,0,0-.39-.11-.56-.19-.16-.09-.33-.29-.35-.4-.02-.11-.03-.42-.03-.42l.1-.34.16-.11.1-.09s-.15-.29-.13-.4c.02-.11-.27-.06-.43-.11-.16-.04-.07-.29-.07-.29l-.15-.31s.43-.12.49-.12c.06,0,.14-.18.26-.16.12.02.08-.34.08-.34l.1-.38s-.25-.06-.23-.22-.04-.27-.15-.31c-.1-.04-.21-.2-.21-.36,0-.16.16-.09.16-.16,0-.07.29-.16.43-.07.14.09.31-.09.41-.18.1-.09.45-.09.47.02.02.11.35.17.35.17,0,0,.16-.32.28-.32.12,0,.28-.34.28-.34l-.02-.31s.02-.22.1-.29c.08-.07.2-.18.31-.25.1-.07-.02.38-.02.38,0,0,.57.73.63.75.06.02.17.16.17.16,0,0,.07.33.07.4,0,.07.35.02.35.02,0,0,.18-.34.1-.4-.08-.07-.13-.31-.03-.47.1-.16.39-.27.42-.45.04-.18-.11-.47-.11-.47l.21-.05.02.29.35.22s.41-.14.45-.23c.04-.09.27.44.42.51.14.07.1-.25.1-.25l.08-.4s-.19-.11-.21-.35c-.03-.25.16-.14.33.02.02.02.05.04.09.05.08-.41.17-.82.27-1.25-.04-.09-.21-.08-.35-.07-.16,0-.28.27-.43.27-.14,0-.19-.31-.17-.38.02-.07-.23-.09-.35-.13-.12-.04-.27-.27-.29-.38-.02-.11.12-.34.12-.34,0,0,.06-.42.05-.49,0-.07.26-.14.26-.14l-.35-.17s-.52-.37-.64-.39c-.12-.02-.35.07-.35.07,0,0-.04-.13-.1-.15-.06-.02-.08.22-.14.22-.06,0-.21-.15-.21-.24,0-.09-.41-.11-.58-.1s-.22.38-.2.54c.02.16-1.07.06-1.25.02-.19-.04.04-1.41.04-1.61,0-.2.42-1.06.52-1.21.1-.16.04-.34.04-.34l.47-.52.32-.59s.04-.4.16-.38c.12.02-.05-.6-.05-.6,0,0,.23,0,.35.02.12.02.33.11.39.17.06.07.12-.13.2-.14.08,0,.16-.2.16-.2l.08-.58s-.21-.38-.23-.56c-.02-.18.14-.27.14-.27l.12-.2s.43.11.49.13c.06.02.1-.27.1-.27,0,0,.12-.16.24-.18.12-.02.06-.2.06-.34,0-.13.31-.14.31-.14l.32-.34-.05-.38s-.21-.2-.25-.29c-.04-.09.16-.29.16-.36,0-.07.08-.25.18-.23.1.02.08-.18.06-.25-.02-.07.12-.23.12-.34,0-.07-.18-.17-.33-.26-.23-.03-.56-.05-.56-.05l-.34-.12s.24-.51.2-.62-.46-.27-.46-.27l.45-.56s.85-.19.86-.34-.12-.5-.12-.5l.21-.11s-.58-.06-.57-.12.49-.64.49-.64v-.22l.24-.11-.05-.42s.17-.44.25-.43.29.26.29.26l.14-.02c-.09-.08.17-.15.17-.15l.16-.14s.25.04.37.04c.12,0,.28-.16.28-.23,0-.07.28-.18.39-.14.1.04-.48-.4-.48-.4,0,0-.17-.22-.23-.22-.06,0-.31-.22-.27-.38s-.23-.07-.33-.04c-.1.02-.29-.13-.29-.13l.24-.23.22-.41s-.11-.29-.17-.29c-.06,0-.09-.31-.09-.31l.2-.29.15.13s.31.02.43.06c.12.04.26-.41.26-.41l.02-.27s.29-.03.47-.05c.18-.03.28-.16.28-.16,0,0,.22-.14.35-.12.12.02.14-.14.1-.25-.04-.11.39-.16.49-.16.1,0,.29,0,.33.13.04.13.37.24.37.24l.37.35s.12-.2.2-.2c.08,0,.13.27.13.33,0,.07.25.22.33.22.08,0-.1.29-.1.29l.5.28s.47.13.54.15c.06.02.26.65.32.65.06,0,.04-.4.04-.4,0,0-.17-.38-.15-.49.02-.11-.09-.31-.27-.35-.18-.04.04-.31.04-.31,0,0,.67-.32.75-.34.08-.02,1.59-.8,1.79-.92.2-.11.26-.63.26-.63,0,0,.44-.28.61-.38-.02-.03-.04-.06-.07-.08.24-.22.88-.29.82-.62.62-.39,2.08-.25,3.67-.35.52-.03.68-.05,1.32-.05.63,0,1.2-.16,1.73-.16.9,0,1.8.16,2.54-.07.42-.04.4.09.71.09,8.21-.33,5.5-.49,14.04-.78,2.46-.03,6.33-.31,7.81-.36,1.8.05,8.41.37,8.77.29,1.22,0,2.04-.13,3.15.02.38,0,.31-.18.61-.21.58-.02.72.12,1.22.13.4,0,.38.01.59-.06.28-.02-.05.02.22,0,1.02-.04,1.68-.11,2.75.19.93-.23,2.03-.08,3.26-.17.12.12-.33.02-.21.15.7.08.55-.17.92-.21.54-.01,1.54-.14,1.54-.14.02,0,.11-.04.13-.04,1.07-.15,3.03-.18,4.99-.06,3.36-.16-4.05-.07.17-.09.67,0,1.27.09,1.93.1,1.23.02,2.58-.07,3.87-.09,1.66-.03,3.33.06,4.99.05,5.76-.01-1.24-.05,4.3.03.31.02.35.14.61.18,2.22.08,4.45-.05,6.25.15-.31,0-1.17.05-2.09.09l21.3.78.02-.07s.01,0,.02.01c.04.03.06.06.06.06l-.03-.03s.74.03.75.33c.01.3.07.45.14.65.06.2.42.68.44.86.03.18.36.7.35.92-.01.23.21.67.26.85.04.18-.17.49-.39.6-.22.11-.33.7-.38.87-.05.16.55.23.55.23,0,0,.25.26.29.32.04.06.08.77.03.96-.05.18.22.3.26.44.04.14,0,.16.12.3.12.14.49.59.61.77s.05.33.05.43c0,.1.3.52.31.72,0,.2-.4.36-.54.49-.14.13-.6,1.06-.71,1.39-.12.33-.19,1.01-.16,1.31.03.3.08.55.08.73,0,.18-.11.11-.18.29-.07.18-.19.92-.24,1.09-.05.16.09.51.19.63.1.12.2.3.3.46.1.16.34.03.34.03,0,0,.25.09.34.17.1.08.01.41.02.55,0,.14-.44.12-.54.14-.09.02-.41.56-.48.73-.07.16-.02.41-.09.72-.06.31-.26.68-.36.83-.11.15-.1.88-.22.98-.13.11-.12.66-.19.8-.07.15-.23.33-.46.2-.23-.14-.19.49-.19.49,0,0-.28-.07-.36-.07-.07,0-.24.15-.41.11-.17-.03-.3.07-.4.2-.11.13-.35.01-.45-.05-.1-.06-.11.06-.2.11-.09.04-.3.44-.43.44-.13,0-.19,0-.26.03-.07.02-.12.35-.13.43-.02.08.13.4.13.54,0,.14.19.18.18.24-.02.06.03.2.16.34.14.14.3.07.43.09.13.02-.12.25-.22.25s-.14.25-.14.25c0,0,.24.48.06.57-.18.09-.29-.15-.29-.15,0,0-.37-.31-.53-.31-.17,0-.3.03-.43-.09-.13-.12-.25.21-.25.21l-.17-.18s-.16.17-.16.27c0,.1-.25-.14-.38-.19-.13-.06-.24.13-.31.09-.08-.04-.27-.09-.27-.09,0,0-.24.05-.3.09-.05.04-.34-.21-.34-.21,0,0-.2.23-.25.27-.05.04-.32-.03-.47-.02-.15,0-.17.45-.28.56-.11.11-.46-.31-.46-.45,0-.14-.23-.05-.45-.03-.22.03-.12.39-.05.55.06.16-.02.49-.02.49,0,0,.05.26.22.3,0,0,.32.15.33.32,0,.16.14.16.19.18.06.02.16.34.22.48.06.14.2.48.28.56.08.08.33-.03.44.29.03.1.3.48.45.47s.29.21.29.34c0,.12.36.11.57.18.21.08.13.48.13.48,0,0,.54.43.65.49.11.06-.09.19-.18.21-.09.02-.44-.29-.44-.29,0,0-.52-.43-.58-.53-.06-.1-.39-.03-.54-.02-.15,0-.14-.2,0-.29.15-.09-.68.21-.94.26-.26.05-.32-.44-.38-.54-.06-.1-.28-.01-.49-.1-.07-.03-.2-.13-.33-.25-.21.02-.43.02-.69.02,0,.12.58.04.72.11-.22.16-.68.23-.71.45-2.83.07-2.2-.14-4.8,0,.1.11.59.08.81.15-.55.14-2.05.06-2.44-.1.31-.08.79.04,1.32,0,.03-.15-.79-.13-1.02-.07-.3,0-.35-.1-.61-.11-1.64-.15-3.33-.02-5.09-.16-1.42-.12,5.19-.51,3.33-.57-.67-.02-1.33.07-1.73-.1-2.15-.02-4.41-.05-6.82-.12-1.24-.03-2.46-.16-3.67-.17-.42,0-.82.05-1.22.04-.31,0-.55-.1-.82-.11-.99-.06-1.77-.01-2.95.01-1.66.04-3.35-.09-5.09-.13-.83-.01-1.71.06-2.54.05-4.8-.04,3.45-.05-1.35-.05-5.32,0,1.51.08-3.45.14v.02c-1.05.07-2.09.14-2.94.2-.5.03-4.43.15-5.8.23l-14.72.93Z"/></g><g id="Ebene_1"><rect class="cls-5" x="132.34" y="16.82" width="50.08" height="33.74"/><path class="cls-2" d="m182.95,16.3h-51.13v34.79h51.13V16.3Zm-1.05,33.74h-49.03V17.35h49.03v32.69Z"/><polygon class="cls-4" points="166.25 27.85 166.64 26.61 167.04 27.85 168.33 27.85 167.28 28.6 167.68 29.82 166.64 29.06 165.61 29.82 166 28.6 164.95 27.85 166.25 27.85"/><polygon class="cls-4" points="156.97 22.5 157.37 21.26 157.76 22.49 159.06 22.49 158.01 23.25 158.4 24.47 157.37 23.72 156.33 24.47 156.73 23.25 155.68 22.49 156.97 22.5"/><polygon class="cls-4" points="144.97 33.21 146.26 33.21 146.66 31.97 147.05 33.21 148.35 33.21 147.3 33.96 147.69 35.18 146.66 34.43 145.62 35.18 146.02 33.96 144.97 33.21"/><polygon class="cls-4" points="149.13 40.55 148.1 39.79 147.06 40.55 147.46 39.33 146.41 38.57 147.7 38.57 148.1 37.33 148.49 38.57 149.79 38.57 148.74 39.33 149.13 40.55"/><polygon class="cls-4" points="148.74 28.62 149.13 29.83 148.09 29.08 147.06 29.83 147.46 28.62 146.4 27.86 147.7 27.86 148.09 26.62 148.49 27.86 149.79 27.86 148.74 28.62"/><polygon class="cls-4" points="151.62 23.93 152.01 22.7 152.41 23.93 153.7 23.93 152.65 24.69 153.05 25.91 152.01 25.15 150.98 25.91 151.37 24.69 150.32 23.93 151.62 23.93"/><polygon class="cls-4" points="153.06 44.47 152.02 43.72 150.99 44.47 151.38 43.25 150.33 42.5 151.63 42.5 152.02 41.26 152.42 42.5 153.71 42.5 152.66 43.25 153.06 44.47"/><polygon class="cls-4" points="158.4 45.89 157.37 45.14 156.33 45.89 156.73 44.67 155.68 43.92 156.97 43.92 157.37 42.68 157.77 43.92 159.06 43.92 158.01 44.67 158.4 45.89"/><polygon class="cls-4" points="163.75 44.47 162.72 43.72 161.68 44.47 162.07 43.25 161.02 42.5 162.32 42.5 162.72 41.26 163.11 42.5 164.41 42.5 163.36 43.25 163.75 44.47"/><polygon class="cls-4" points="163.37 24.69 163.77 25.91 162.73 25.15 161.7 25.91 162.09 24.69 161.04 23.93 162.34 23.94 162.73 22.7 163.13 23.93 164.42 23.93 163.37 24.69"/><polygon class="cls-4" points="167.68 40.55 166.64 39.79 165.61 40.55 166 39.33 164.95 38.57 166.25 38.57 166.64 37.33 167.04 38.57 168.33 38.57 167.28 39.33 167.68 40.55"/><polygon class="cls-4" points="169.1 35.17 168.06 34.41 167.03 35.17 167.42 33.95 166.37 33.19 167.67 33.2 168.06 31.96 168.46 33.19 169.76 33.19 168.7 33.95 169.1 35.17"/><g><path class="cls-3" d="m197.08,28l1.58.5c-.24.88-.65,1.54-1.21,1.97-.56.43-1.28.64-2.15.64-1.07,0-1.96-.37-2.65-1.1-.69-.73-1.04-1.74-1.04-3.01,0-1.34.35-2.39,1.04-3.13.69-.74,1.61-1.12,2.74-1.12.99,0,1.79.29,2.41.88.37.35.64.84.83,1.49l-1.62.39c-.1-.42-.3-.75-.6-.99-.3-.24-.67-.36-1.11-.36-.6,0-1.08.22-1.46.65s-.56,1.13-.56,2.09c0,1.02.18,1.75.55,2.18.37.43.85.65,1.43.65.43,0,.81-.14,1.12-.41.31-.28.54-.71.67-1.3"/><path class="cls-3" d="m201.28,28.05c0,.58.14,1.03.41,1.33.28.31.62.46,1.02.46s.74-.15,1.02-.46c.27-.31.41-.76.41-1.35s-.14-1.01-.41-1.32c-.27-.31-.61-.46-1.02-.46s-.74.15-1.02.46c-.28.31-.41.75-.41,1.33m-1.59-.08c0-.51.13-1.01.38-1.49.25-.48.61-.85,1.08-1.1.47-.25.98-.38,1.56-.38.88,0,1.61.29,2.18.86.57.58.85,1.3.85,2.18s-.29,1.62-.86,2.2c-.57.58-1.29.88-2.16.88-.54,0-1.05-.12-1.54-.36-.49-.24-.86-.6-1.11-1.07-.25-.47-.38-1.04-.38-1.71"/></g><rect class="cls-3" x="206.77" y="27.27" width="3.04" height="1.55"/><g><path class="cls-3" d="m210.03,25.12h.86v-.44c0-.49.05-.86.16-1.1.1-.24.3-.44.58-.59.28-.15.64-.23,1.07-.23s.87.07,1.3.2l-.21,1.08c-.25-.06-.48-.09-.71-.09s-.38.05-.48.16c-.1.1-.15.31-.15.6v.41h1.16v1.22h-1.16v4.64h-1.55v-4.64h-.86v-1.22Z"/><path class="cls-3" d="m218.33,30.98v-.88c-.21.31-.49.56-.84.74-.35.18-.71.27-1.1.27s-.75-.09-1.06-.26c-.31-.17-.54-.42-.68-.73-.14-.31-.21-.74-.21-1.3v-3.7h1.55v2.69c0,.82.03,1.33.09,1.51.06.19.16.33.31.44.15.11.34.16.57.16.26,0,.5-.07.71-.22.21-.15.35-.33.43-.54.08-.21.12-.74.12-1.58v-2.47h1.55v5.85h-1.44Z"/><path class="cls-3" d="m226.7,30.98h-1.55v-2.99c0-.63-.03-1.04-.1-1.23-.07-.19-.17-.33-.32-.43-.15-.1-.33-.15-.54-.15-.27,0-.51.07-.72.22-.21.15-.36.34-.44.58-.08.24-.12.69-.12,1.35v2.65h-1.55v-5.85h1.44v.86c.51-.66,1.15-.99,1.93-.99.34,0,.65.06.94.18.28.12.5.28.64.47.15.19.25.41.3.65.06.24.09.59.09,1.04v3.64Z"/><path class="cls-3" d="m229.5,27.92c0,.62.09,1.08.26,1.36.25.4.6.61,1.05.61.36,0,.66-.15.91-.45.25-.3.38-.76.38-1.36,0-.67-.12-1.16-.36-1.45-.24-.3-.55-.44-.93-.44s-.68.15-.92.44c-.25.29-.37.73-.37,1.31m4.13,3.06h-1.44v-.86c-.24.33-.52.58-.85.75-.32.16-.65.24-.98.24-.67,0-1.25-.27-1.73-.81s-.72-1.3-.72-2.27.23-1.75.7-2.26c.47-.52,1.06-.77,1.77-.77.65,0,1.22.27,1.7.82v-2.91h1.55v8.08Z"/><path class="cls-3" d="m238.64,27.55c-.01-.45-.13-.79-.35-1.02-.22-.23-.49-.35-.81-.35-.34,0-.62.12-.84.37-.22.25-.33.58-.33,1h2.32Zm-.09,1.57l1.54.26c-.2.57-.51,1-.94,1.29-.43.3-.96.44-1.61.44-1.02,0-1.77-.33-2.26-1-.39-.53-.58-1.21-.58-2.02,0-.97.25-1.73.76-2.28.51-.55,1.15-.82,1.92-.82.87,0,1.56.29,2.06.86.5.58.74,1.46.72,2.64h-3.88c.01.46.14.82.38,1.07.24.25.54.38.89.38.24,0,.45-.07.61-.2.17-.13.29-.35.38-.64"/><path class="cls-3" d="m242.68,27.92c0,.62.09,1.08.26,1.36.25.4.6.61,1.05.61.36,0,.66-.15.91-.45.25-.3.38-.76.38-1.36,0-.67-.12-1.16-.36-1.45-.24-.3-.55-.44-.93-.44s-.68.15-.92.44c-.25.29-.37.73-.37,1.31m4.13,3.06h-1.44v-.86c-.24.33-.52.58-.85.75-.32.16-.65.24-.99.24-.67,0-1.25-.27-1.73-.81-.48-.54-.72-1.3-.72-2.27s.23-1.75.7-2.26c.47-.52,1.06-.77,1.77-.77.65,0,1.22.27,1.7.82v-2.91h1.55v8.08Z"/><path class="cls-3" d="m252.95,27.92c0,.61.1,1.06.29,1.35.27.41.62.62,1.07.62.34,0,.63-.15.88-.44s.36-.75.36-1.38c0-.67-.12-1.15-.36-1.45-.24-.3-.55-.44-.93-.44s-.68.14-.93.43c-.25.29-.37.73-.37,1.31m-1.54,3.06v-8.08h1.55v2.91c.48-.54,1.04-.82,1.7-.82.71,0,1.3.26,1.77.77.47.52.7,1.26.7,2.23s-.24,1.77-.71,2.31c-.48.54-1.06.81-1.74.81-.33,0-.66-.08-.99-.25-.32-.17-.6-.41-.84-.74v.86h-1.44Z"/><path class="cls-3" d="m257.64,25.12h1.65l1.4,4.16,1.37-4.16h1.61l-2.07,5.63-.37,1.02c-.14.34-.27.6-.39.78-.12.18-.26.33-.42.44-.16.11-.36.2-.59.26-.23.06-.5.09-.79.09s-.59-.03-.88-.09l-.14-1.21c.24.05.46.07.66.07.36,0,.63-.11.8-.32.17-.21.31-.48.4-.81l-2.23-5.87Z"/><path class="cls-3" d="m194.92,38.67v1.24h-1.06v2.36c0,.48.01.76.03.84l.14.2c.07.05.16.08.26.08.14,0,.35-.05.62-.15l.13,1.2c-.36.15-.77.23-1.22.23-.28,0-.53-.05-.76-.14-.22-.09-.39-.22-.49-.36-.1-.15-.18-.35-.22-.6-.03-.18-.05-.54-.05-1.09v-2.55h-.71v-1.24h.71v-1.16l1.55-.9v2.07h1.06Z"/><path class="cls-3" d="m197.54,36.44v2.97c.5-.58,1.1-.88,1.79-.88.36,0,.68.07.96.2.29.13.5.3.65.51.15.2.24.43.3.68.05.25.08.64.08,1.16v3.44h-1.55v-3.09c0-.61-.03-1-.09-1.17-.06-.17-.16-.3-.31-.39-.15-.1-.34-.15-.56-.15-.26,0-.49.06-.69.19s-.35.31-.44.57c-.09.25-.14.62-.14,1.12v2.93h-1.55v-8.08h1.55Z"/><path class="cls-3" d="m206.37,41.1c-.01-.45-.13-.79-.35-1.02-.22-.23-.49-.35-.8-.35-.34,0-.62.12-.84.37-.22.25-.33.58-.33,1h2.32Zm-.09,1.57l1.54.26c-.2.57-.51,1-.94,1.29-.43.3-.96.44-1.61.44-1.02,0-1.77-.33-2.26-1-.39-.53-.58-1.21-.58-2.02,0-.97.25-1.73.76-2.28.51-.55,1.15-.82,1.92-.82.87,0,1.56.29,2.06.86.5.57.74,1.46.72,2.64h-3.88c.01.46.14.82.38,1.07s.54.38.89.38c.24,0,.45-.07.61-.2.17-.13.29-.35.38-.64"/></g><polygon class="cls-3" points="212.32 44.53 212.32 36.44 218.32 36.44 218.32 37.81 213.96 37.81 213.96 39.6 218.01 39.6 218.01 40.96 213.96 40.96 213.96 43.16 218.47 43.16 218.47 44.53 212.32 44.53"/><g><path class="cls-3" d="m223.7,44.53v-.88c-.21.31-.49.56-.84.74-.35.18-.71.27-1.1.27s-.75-.09-1.06-.26c-.31-.17-.54-.41-.68-.73-.14-.31-.21-.74-.21-1.3v-3.71h1.55v2.69c0,.82.03,1.33.09,1.51.06.19.16.33.31.44.15.11.34.16.57.16.26,0,.5-.07.71-.22.21-.15.35-.33.43-.54.08-.22.12-.74.12-1.58v-2.47h1.55v5.86h-1.44Z"/><path class="cls-3" d="m228.22,44.53h-1.55v-5.86h1.44v.83c.25-.39.47-.65.66-.78.2-.12.42-.19.67-.19.35,0,.69.1,1.02.29l-.48,1.35c-.26-.17-.5-.25-.73-.25s-.4.06-.55.18c-.15.12-.27.34-.35.65-.09.31-.13.97-.13,1.96v1.81Z"/><path class="cls-3" d="m232.37,41.6c0,.58.14,1.03.41,1.33.28.31.62.46,1.02.46s.74-.15,1.02-.46c.27-.31.41-.76.41-1.34s-.14-1.02-.41-1.32c-.27-.31-.61-.46-1.02-.46s-.74.16-1.02.46c-.28.31-.41.75-.41,1.33m-1.59-.08c0-.51.13-1.01.38-1.49.25-.48.61-.85,1.08-1.1.47-.25.98-.38,1.56-.38.88,0,1.61.29,2.18.86.57.58.85,1.3.85,2.18s-.29,1.62-.86,2.2c-.57.58-1.29.87-2.16.87-.54,0-1.05-.12-1.54-.36s-.86-.6-1.11-1.07c-.25-.47-.38-1.04-.38-1.71"/><path class="cls-3" d="m239.52,41.5c0,.66.13,1.14.39,1.46.26.31.58.47.95.47s.66-.14.9-.43c.24-.29.36-.76.36-1.42,0-.61-.12-1.07-.37-1.37-.25-.3-.55-.45-.92-.45s-.69.15-.94.44-.38.72-.38,1.3m-1.53-2.83h1.44v.86c.19-.29.44-.53.76-.72.32-.18.68-.28,1.07-.28.68,0,1.26.27,1.73.8.47.53.71,1.28.71,2.23s-.24,1.74-.72,2.28c-.48.54-1.06.81-1.74.81-.32,0-.62-.07-.88-.19-.26-.13-.54-.35-.83-.66v2.95h-1.55v-8.08Z"/><path class="cls-3" d="m248.41,41.1c-.01-.45-.13-.79-.35-1.02-.22-.23-.49-.35-.81-.35-.34,0-.62.12-.84.37-.22.25-.33.58-.33,1h2.32Zm-.09,1.57l1.54.26c-.2.57-.51,1-.94,1.29-.43.3-.96.44-1.61.44-1.02,0-1.77-.33-2.26-1-.38-.53-.58-1.21-.58-2.02,0-.97.25-1.73.76-2.28.51-.55,1.15-.82,1.92-.82.87,0,1.56.29,2.06.86.5.57.74,1.46.72,2.64h-3.88c.01.46.14.82.38,1.07s.54.38.89.38c.24,0,.45-.07.61-.2.17-.13.29-.35.38-.64"/><path class="cls-3" d="m254.44,41.71c-.2.07-.51.15-.94.24-.43.09-.71.18-.84.27-.2.14-.3.33-.3.55s.08.4.24.56c.16.16.37.24.62.24.28,0,.55-.09.8-.27.19-.14.31-.31.37-.51.04-.13.06-.38.06-.75v-.31Zm-2.07-1.26l-1.41-.25c.16-.57.43-.99.82-1.26.39-.27.96-.41,1.72-.41.69,0,1.21.08,1.54.25.34.16.58.37.71.62.14.25.21.71.21,1.39l-.02,1.81c0,.51.02.89.07,1.14.05.24.14.51.28.79h-1.53c-.04-.1-.09-.26-.15-.46-.02-.09-.04-.15-.05-.18-.26.26-.55.45-.85.58-.3.13-.62.19-.96.19-.6,0-1.08-.16-1.43-.49-.35-.33-.52-.74-.52-1.24,0-.33.08-.63.24-.89.16-.26.38-.46.66-.59.28-.14.69-.26,1.23-.36.73-.14,1.23-.26,1.51-.38v-.15c0-.3-.07-.51-.22-.64-.15-.13-.43-.19-.83-.19-.28,0-.49.05-.65.16-.15.11-.28.3-.37.57"/><path class="cls-3" d="m262.82,44.53h-1.55v-2.99c0-.63-.03-1.04-.1-1.23-.07-.18-.17-.33-.32-.43-.15-.1-.33-.15-.54-.15-.27,0-.51.07-.72.22-.21.15-.36.34-.44.59-.08.24-.12.69-.12,1.34v2.65h-1.55v-5.86h1.44v.86c.51-.66,1.15-.99,1.93-.99.34,0,.65.06.94.18.28.12.5.28.64.47.15.19.25.41.3.65.06.24.09.59.09,1.04v3.64Z"/><path class="cls-3" d="m267.52,36.44h1.63v4.38c0,.69.02,1.14.06,1.35.07.33.24.6.5.8.26.2.62.3,1.08.3s.81-.1,1.05-.28c.24-.19.38-.42.42-.7s.07-.73.07-1.37v-4.47h1.63v4.24c0,.97-.04,1.66-.13,2.06-.09.4-.25.74-.49,1.01-.24.28-.55.5-.95.66-.4.16-.91.25-1.55.25-.77,0-1.36-.09-1.76-.27-.4-.18-.71-.41-.95-.69-.23-.28-.38-.58-.46-.9-.11-.46-.16-1.15-.16-2.05v-4.31Z"/><path class="cls-3" d="m281.01,44.53h-1.55v-2.99c0-.63-.03-1.04-.1-1.23-.07-.18-.17-.33-.32-.43-.15-.1-.33-.15-.54-.15-.27,0-.51.07-.72.22-.21.15-.36.34-.44.59-.08.24-.12.69-.12,1.34v2.65h-1.55v-5.86h1.44v.86c.51-.66,1.15-.99,1.93-.99.34,0,.65.06.94.18.28.12.5.28.64.47.15.19.25.41.3.65.06.24.09.59.09,1.04v3.64Z"/></g><path class="cls-3" d="m282.58,38.67h1.55v5.86h-1.55v-5.86Zm0-2.23h1.55v1.43h-1.55v-1.43Z"/><g><path class="cls-3" d="m286.94,41.6c0,.58.14,1.03.41,1.33.28.31.62.46,1.02.46s.74-.15,1.02-.46c.27-.31.41-.76.41-1.34s-.14-1.02-.41-1.32c-.27-.31-.61-.46-1.02-.46s-.74.16-1.02.46c-.27.31-.41.75-.41,1.33m-1.59-.08c0-.51.13-1.01.38-1.49.25-.48.61-.85,1.08-1.1s.98-.38,1.56-.38c.89,0,1.61.29,2.18.86.57.58.85,1.3.85,2.18s-.29,1.62-.86,2.2c-.57.58-1.29.87-2.16.87-.54,0-1.05-.12-1.54-.36-.49-.24-.86-.6-1.11-1.07-.25-.47-.38-1.04-.38-1.71"/><path class="cls-3" d="m297.94,44.53h-1.55v-2.99c0-.63-.03-1.04-.1-1.23-.07-.18-.17-.33-.32-.43-.15-.1-.33-.15-.54-.15-.27,0-.51.07-.72.22-.21.15-.36.34-.44.59-.08.24-.12.69-.12,1.34v2.65h-1.55v-5.86h1.44v.86c.51-.66,1.15-.99,1.93-.99.34,0,.65.06.94.18.28.12.5.28.64.47.15.19.25.41.3.65.06.24.09.59.09,1.04v3.64Z"/><path class="cls-6" d="m92.86,24.32c1.42,0,2.37.89,2.73,2.27,1.25.12,2.49.24,3.71.37-.51-3.14-2.58-5.71-6.44-5.71-3.08,0-5.43,1.96-6.3,4.66,1.24.07,2.46.16,3.68.24.48-1.14,1.38-1.83,2.62-1.83"/><path class="cls-5" d="m86.19,28.32c0,4.13,3,6.97,7.05,6.97,2.44,0,4.25-.96,5.51-2.52l-2.19-1.94c-1.06.98-1.99,1.39-3.27,1.39-1.71,0-2.92-.91-3.3-2.64h9.39c.02-.35.05-.7.05-1.01,0-.55-.05-1.09-.13-1.61-1.22-.13-2.46-.25-3.71-.37.05.19.09.39.12.6h-5.76c.06-.38.17-.72.3-1.04-1.21-.09-2.44-.17-3.68-.24-.24.74-.37,1.53-.37,2.36v.05Z"/><path class="cls-6" d="m20.8,17.37h-3.88v11.91c1.26-.24,2.55-.47,3.88-.69v-11.23Z"/><path class="cls-6" d="m44.5,24.77h3.17v-3.27h-3.17v-3.45h-3.83v3.45h-1.61v3.27h1.61v1.48c1.26-.1,2.54-.19,3.83-.27v-1.21Z"/><path class="cls-6" d="m56.51,24.32c.94,0,1.67.4,2.17,1.06,1.27-.03,2.55-.05,3.84-.06-.89-2.35-2.84-4.07-6.01-4.07-2.99,0-5.29,1.84-6.22,4.41,1.31-.06,2.62-.11,3.94-.16.52-.75,1.29-1.19,2.27-1.19"/><path class="cls-6" d="m72.75,25.36c.35-.07.71-.11,1.11-.11h.2v-4c-2.26-.1-3.53,1.11-4.3,2.97v-2.72h-3.83v3.8h.21c2.22,0,4.43.02,6.61.06"/><path class="cls-6" d="m84.38,25.25h.2v-4c-2.26-.1-3.52,1.11-4.3,2.97v-2.72h-3.83v3.96c1.99.06,3.96.13,5.91.22.57-.28,1.25-.43,2.02-.43"/><path class="cls-6" d="m105,27.59v-.05c0-1.84,1.41-3.12,3.27-3.12s3.3,1.28,3.3,3.12v.05c0,.35-.05.69-.15.99,1.34.22,2.65.45,3.93.7v-7.78h-3.83v1.76c-1.03-1.13-2.26-2.01-4.35-2.01-3,0-5.8,2.13-5.97,5.92,1.29.15,2.56.3,3.81.47v-.05Z"/><path class="cls-6" d="m29.63,24.8c.25-.12.81-.24,1.09-.24s.84.12,1.09.24c.97.46,1.41,1.15,1.54,2.12,1.21-.13,2.44-.25,3.69-.36-.43-1.96-1.6-3.62-3.42-4.54-.83-.42-1.8-.77-2.89-.77s-2.06.35-2.9.77c-2.26,1.15-3.53,3.44-3.6,6.04,1.25-.18,2.53-.36,3.82-.53,0-1.3.41-2.18,1.58-2.74"/><path class="cls-5" d="m20.8,34.99v-6.4c-1.32.22-2.62.45-3.88.69v5.71h3.88Z"/><path class="cls-5" d="m44.6,35.22c1.28,0,2.22-.3,3.02-.78v-3.07c-.55.3-1.18.48-1.89.48-.86,0-1.23-.43-1.23-1.31v-4.56c-1.29.08-2.56.17-3.83.27v4.91c0,3.12,1.59,4.05,3.93,4.05"/><path class="cls-5" d="m49.84,28.32c0,4.13,3,6.97,7.05,6.97,2.44,0,4.25-.96,5.51-2.52l-2.19-1.94c-1.06.98-1.99,1.39-3.27,1.39-1.71,0-2.92-.91-3.3-2.64h9.39c.02-.35.05-.7.05-1.01,0-1.14-.19-2.25-.56-3.25-1.29.01-2.57.03-3.84.06.35.48.59,1.09.68,1.81h-5.76c.11-.66.33-1.23.65-1.68-1.33.05-2.64.1-3.95.16-.29.81-.45,1.69-.45,2.61v.05Z"/><path class="cls-5" d="m69.75,34.99v-4.98c0-2.72,1.12-4.24,3-4.64-2.19-.04-4.39-.06-6.62-.06h-.21v9.69h3.83Z"/><path class="cls-5" d="m80.28,34.99v-4.98c0-2.25.76-3.67,2.08-4.33-1.95-.09-3.92-.17-5.91-.22v9.54h3.83Z"/><path class="cls-5" d="m101.17,27.59c0,4,2.85,6.29,5.99,6.29,2.04,0,3.27-.83,4.41-2.19v.65c0,2.42-1.23,3.68-3.85,3.68-1.79,0-3.17-.45-4.56-1.23l-1.31,2.87c1.71.91,3.78,1.41,5.97,1.41,2.62,0,4.56-.55,5.81-1.81,1.13-1.13,1.71-2.9,1.71-5.31v-2.66c-1.28-.24-2.59-.47-3.93-.7-.42,1.29-1.64,2.13-3.15,2.13-1.85,0-3.25-1.24-3.27-3.08-1.25-.17-2.52-.32-3.81-.47,0,.12-.02.24-.02.37v.05Z"/><path class="cls-5" d="m33.4,27.57v7.42h3.83v-6.72c0-.59-.06-1.16-.18-1.71-1.24.11-2.47.23-3.69.36.03.21.04.42.04.65"/><path class="cls-5" d="m24.22,28.32v6.67h3.83v-7.45c-1.29.17-2.57.34-3.82.52v.21s0,.05,0,.05Z"/><path class="cls-5" d="m111.26,48.47v-1.8h3.48v-1.4h-3.48v-1.69h3.94v-1.44h-5.67v7.77h5.81v-1.44h-4.08Zm-5.96-2.16h-1.42v-2.7h1.42c1.06,0,1.6.5,1.6,1.35s-.54,1.34-1.6,1.34m.1-4.16h-3.25v7.77h1.74v-2.14h1.51c2,0,3.26-1.07,3.26-2.81s-1.25-2.82-3.26-2.82m-8.35,6.37c-1.34,0-2.35-1.01-2.35-2.49s1.01-2.49,2.35-2.49,2.35,1.01,2.35,2.49-1.01,2.49-2.35,2.49m0,1.53c2.36,0,4.1-1.7,4.1-4.02s-1.75-4.02-4.1-4.02-4.11,1.71-4.11,4.02,1.74,4.02,4.11,4.02m-6.4-5.08c0,.84-.54,1.35-1.6,1.35h-1.42v-2.71h1.42c1.06,0,1.6.5,1.6,1.35m1.9,4.95l-1.68-2.5c.97-.43,1.54-1.29,1.54-2.45,0-1.74-1.25-2.82-3.26-2.82h-3.25v7.77h1.74v-2.17h1.6l1.45,2.17h1.86Zm-11.44.13c2.13,0,3.4-1.26,3.4-3.55v-4.35h-1.71v4.28c0,1.48-.61,2.09-1.67,2.09s-1.67-.61-1.67-2.09v-4.28h-1.74v4.35c0,2.29,1.26,3.55,3.4,3.55m-8.43-1.58v-1.8h3.48v-1.4h-3.48v-1.69h3.94v-1.44h-5.67v7.77h5.81v-1.44h-4.08Zm-10.59,1.44h5.5v-1.46h-3.76v-6.31h-1.74v7.77Zm-5.9-3.03l1.19-2.98,1.19,2.98h-2.38Zm3.59,3.03h1.82l-3.35-7.77h-1.72l-3.34,7.77h1.78l.66-1.67h3.48l.67,1.67Zm-8.7-4.95c0,.84-.54,1.35-1.6,1.35h-1.42v-2.71h1.42c1.06,0,1.6.5,1.6,1.35m1.9,4.95l-1.68-2.5c.97-.43,1.54-1.29,1.54-2.45,0-1.74-1.25-2.82-3.26-2.82h-3.25v7.77h1.74v-2.17h1.6l1.45,2.17h1.86Zm-11.34,0h1.74v-6.31h2.4v-1.46h-6.54v1.46h2.4v6.31Zm-4.68-7.77v4.72l-3.73-4.72h-1.44v7.77h1.71v-4.72l3.74,4.72h1.42v-7.77h-1.71Zm-10.38,6.33v-1.8h3.48v-1.4h-3.48v-1.69h3.94v-1.44h-5.67v7.77h5.81v-1.44h-4.08Zm-5.59,1.58c1.31,0,2.39-.49,3.1-1.39l-1.11-1.07c-.5.61-1.14.92-1.89.92-1.4,0-2.4-1.02-2.4-2.49s1-2.49,2.4-2.49c.75,0,1.38.31,1.89.91l1.11-1.07c-.71-.89-1.79-1.38-3.09-1.38-2.34,0-4.07,1.67-4.07,4.02s1.73,4.02,4.06,4.02"/></g><line class="cls-7" x1="1.39" y1="66.34" x2="312.57" y2="66.34"/><text class="cls-1" transform="translate(264.48 99.71)"><tspan x="0" y="0">H2CE</tspan></text></g></svg>